# MagicaVoxel @ Ephtracy

# group
g slime

# material
mtllib slime.mtl
usemtl palette

# normals
vn -1 0 0
vn 1 0 0
vn 0 0 1
vn 0 0 -1
vn 0 -1 0
vn 0 1 0

# texcoords
vt 0.583984 0.5
vt 0.876953 0.5

# verts
v -4 0 4
v -4 0 -4
v -4 8 4
v -4 8 -4
v 4 0 4
v 4 0 -4
v 4 4 2
v 4 4 1
v 4 4 -1
v 4 4 -2
v 4 6 2
v 4 6 1
v 4 6 -1
v 4 6 -2
v 4 8 4
v 4 8 -4
v -4 0 4
v -4 8 4
v 4 0 4
v 4 8 4
v -4 0 -4
v -4 8 -4
v 4 0 -4
v 4 8 -4
v -4 0 4
v 4 0 4
v -4 0 -4
v 4 0 -4
v -4 8 4
v 4 8 4
v -4 8 -4
v 4 8 -4

# faces
f 3/1/1 2/1/1 1/1/1
f 4/1/1 2/1/1 3/1/1
f 5/1/2 6/1/2 7/1/2
f 7/1/2 6/1/2 8/1/2
f 8/1/2 6/1/2 9/1/2
f 9/1/2 6/1/2 10/1/2
f 5/1/2 7/1/2 11/1/2
f 7/2/2 8/2/2 11/2/2
f 8/1/2 9/1/2 12/1/2
f 11/2/2 8/2/2 12/2/2
f 9/2/2 10/2/2 13/2/2
f 12/1/2 9/1/2 13/1/2
f 10/1/2 6/1/2 14/1/2
f 13/2/2 10/2/2 14/2/2
f 12/1/2 13/1/2 15/1/2
f 11/1/2 12/1/2 15/1/2
f 13/1/2 14/1/2 15/1/2
f 5/1/2 11/1/2 15/1/2
f 14/1/2 6/1/2 16/1/2
f 15/1/2 14/1/2 16/1/2
f 19/1/3 18/1/3 17/1/3
f 20/1/3 18/1/3 19/1/3
f 21/1/4 22/1/4 23/1/4
f 23/1/4 22/1/4 24/1/4
f 27/1/5 26/1/5 25/1/5
f 28/1/5 26/1/5 27/1/5
f 29/1/6 30/1/6 31/1/6
f 31/1/6 30/1/6 32/1/6
